<svg xmlns="http://www.w3.org/2000/svg" xmlns:xlink="http://www.w3.org/1999/xlink" width="43" zoomAndPan="magnify" viewBox="0 0 32.25 37.499999" height="50" preserveAspectRatio="xMidYMid meet" version="1.0"><defs><g/><clipPath id="369e3801f4"><path d="M 0 3.332031 L 31.515625 3.332031 L 31.515625 34.851562 L 0 34.851562 Z M 0 3.332031 " clip-rule="nonzero"/></clipPath><clipPath id="eacaf5311c"><path d="M 7 0.183594 L 28 0.183594 L 28 36 L 7 36 Z M 7 0.183594 " clip-rule="nonzero"/></clipPath><clipPath id="abc8571d0b"><rect x="0" width="21" y="0" height="36"/></clipPath></defs><g clip-path="url(#369e3801f4)"><path fill="#c9a963" d="M 31.515625 19.09375 C 31.515625 19.609375 31.492188 20.121094 31.441406 20.636719 C 31.390625 21.148438 31.316406 21.660156 31.214844 22.167969 C 31.113281 22.671875 30.988281 23.171875 30.839844 23.667969 C 30.6875 24.160156 30.515625 24.644531 30.316406 25.121094 C 30.121094 25.597656 29.898438 26.066406 29.65625 26.519531 C 29.414062 26.976562 29.148438 27.417969 28.859375 27.847656 C 28.574219 28.277344 28.265625 28.691406 27.941406 29.089844 C 27.613281 29.488281 27.265625 29.871094 26.902344 30.234375 C 26.535156 30.601562 26.15625 30.945312 25.753906 31.273438 C 25.355469 31.601562 24.941406 31.90625 24.511719 32.195312 C 24.085938 32.480469 23.640625 32.746094 23.1875 32.988281 C 22.730469 33.234375 22.265625 33.453125 21.789062 33.652344 C 21.3125 33.847656 20.828125 34.023438 20.332031 34.171875 C 19.839844 34.320312 19.339844 34.445312 18.832031 34.546875 C 18.328125 34.648438 17.816406 34.722656 17.304688 34.773438 C 16.789062 34.824219 16.273438 34.851562 15.757812 34.851562 C 15.242188 34.851562 14.726562 34.824219 14.214844 34.773438 C 13.699219 34.722656 13.191406 34.648438 12.683594 34.546875 C 12.179688 34.445312 11.679688 34.320312 11.183594 34.171875 C 10.691406 34.023438 10.203125 33.847656 9.726562 33.652344 C 9.25 33.453125 8.785156 33.234375 8.328125 32.988281 C 7.875 32.746094 7.433594 32.480469 7.003906 32.195312 C 6.574219 31.90625 6.160156 31.601562 5.761719 31.273438 C 5.363281 30.945312 4.980469 30.601562 4.617188 30.234375 C 4.25 29.871094 3.90625 29.488281 3.578125 29.089844 C 3.25 28.691406 2.941406 28.277344 2.65625 27.847656 C 2.367188 27.417969 2.105469 26.976562 1.859375 26.519531 C 1.617188 26.066406 1.398438 25.597656 1.199219 25.121094 C 1.003906 24.644531 0.828125 24.160156 0.679688 23.667969 C 0.527344 23.171875 0.402344 22.671875 0.304688 22.167969 C 0.203125 21.660156 0.125 21.148438 0.0742188 20.636719 C 0.0234375 20.121094 0 19.609375 0 19.09375 C 0 18.574219 0.0234375 18.0625 0.0742188 17.546875 C 0.125 17.035156 0.203125 16.523438 0.304688 16.019531 C 0.402344 15.511719 0.527344 15.011719 0.679688 14.519531 C 0.828125 14.023438 1.003906 13.539062 1.199219 13.0625 C 1.398438 12.585938 1.617188 12.117188 1.859375 11.664062 C 2.105469 11.207031 2.367188 10.765625 2.65625 10.335938 C 2.941406 9.90625 3.25 9.492188 3.578125 9.09375 C 3.90625 8.695312 4.25 8.3125 4.617188 7.949219 C 4.980469 7.585938 5.363281 7.238281 5.761719 6.910156 C 6.160156 6.582031 6.574219 6.277344 7.003906 5.988281 C 7.433594 5.703125 7.875 5.4375 8.328125 5.195312 C 8.785156 4.949219 9.25 4.730469 9.726562 4.53125 C 10.203125 4.335938 10.691406 4.160156 11.183594 4.011719 C 11.679688 3.863281 12.179688 3.738281 12.683594 3.636719 C 13.191406 3.535156 13.699219 3.460938 14.214844 3.410156 C 14.726562 3.359375 15.242188 3.332031 15.757812 3.332031 C 16.273438 3.332031 16.789062 3.359375 17.304688 3.410156 C 17.816406 3.460938 18.328125 3.535156 18.832031 3.636719 C 19.339844 3.738281 19.839844 3.863281 20.332031 4.011719 C 20.828125 4.160156 21.3125 4.335938 21.789062 4.53125 C 22.265625 4.730469 22.730469 4.949219 23.1875 5.195312 C 23.640625 5.4375 24.085938 5.703125 24.511719 5.988281 C 24.941406 6.277344 25.355469 6.582031 25.753906 6.910156 C 26.15625 7.238281 26.535156 7.585938 26.902344 7.949219 C 27.265625 8.3125 27.613281 8.695312 27.941406 9.09375 C 28.265625 9.492188 28.574219 9.90625 28.859375 10.335938 C 29.148438 10.765625 29.414062 11.207031 29.65625 11.664062 C 29.898438 12.117188 30.121094 12.585938 30.316406 13.0625 C 30.515625 13.539062 30.6875 14.023438 30.839844 14.519531 C 30.988281 15.011719 31.113281 15.511719 31.214844 16.019531 C 31.316406 16.523438 31.390625 17.035156 31.441406 17.546875 C 31.492188 18.0625 31.515625 18.574219 31.515625 19.09375 Z M 31.515625 19.09375 " fill-opacity="1" fill-rule="nonzero"/></g><g clip-path="url(#eacaf5311c)"><g transform="matrix(1, 0, 0, 1, 7, 0.000000000000001554)"><g clip-path="url(#abc8571d0b)"><g fill="#ffffff" fill-opacity="1"><g transform="translate(0.399877, 25.865632)"><g><path d="M 17.84375 -9.515625 C 17.84375 -6.441406 16.96875 -4.085938 15.21875 -2.453125 C 13.46875 -0.816406 10.941406 0 7.640625 0 L 2.34375 0 L 2.34375 -18.671875 L 8.21875 -18.671875 C 11.257812 -18.671875 13.625 -17.863281 15.3125 -16.25 C 17 -14.644531 17.84375 -12.398438 17.84375 -9.515625 Z M 13.734375 -9.40625 C 13.734375 -13.414062 11.960938 -15.421875 8.421875 -15.421875 L 6.3125 -15.421875 L 6.3125 -3.265625 L 8 -3.265625 C 11.820312 -3.265625 13.734375 -5.3125 13.734375 -9.40625 Z M 13.734375 -9.40625 "/></g></g></g></g></g></g></svg>