<svg xmlns="http://www.w3.org/2000/svg" xmlns:xlink="http://www.w3.org/1999/xlink" width="50" zoomAndPan="magnify" viewBox="0 0 37.5 37.499999" height="50" preserveAspectRatio="xMidYMid meet" version="1.0"><defs><g/><clipPath id="84b9fdc7b5"><path d="M 2.332031 2.988281 L 34.15625 2.988281 L 34.15625 34.8125 L 2.332031 34.8125 Z M 2.332031 2.988281 " clip-rule="nonzero"/></clipPath></defs><g clip-path="url(#84b9fdc7b5)"><path fill="#c9a963" d="M 34.238281 18.941406 C 34.238281 19.460938 34.210938 19.984375 34.160156 20.503906 C 34.109375 21.023438 34.03125 21.539062 33.929688 22.050781 C 33.828125 22.566406 33.703125 23.070312 33.550781 23.570312 C 33.398438 24.070312 33.222656 24.5625 33.023438 25.046875 C 32.824219 25.527344 32.601562 26 32.355469 26.460938 C 32.109375 26.921875 31.839844 27.367188 31.550781 27.804688 C 31.257812 28.238281 30.949219 28.65625 30.617188 29.0625 C 30.285156 29.464844 29.933594 29.851562 29.566406 30.222656 C 29.195312 30.589844 28.808594 30.941406 28.40625 31.273438 C 28 31.605469 27.582031 31.914062 27.148438 32.203125 C 26.714844 32.496094 26.265625 32.761719 25.804688 33.007812 C 25.34375 33.257812 24.871094 33.480469 24.390625 33.679688 C 23.90625 33.878906 23.414062 34.054688 22.914062 34.207031 C 22.414062 34.359375 21.910156 34.484375 21.398438 34.585938 C 20.882812 34.6875 20.367188 34.765625 19.847656 34.816406 C 19.328125 34.867188 18.808594 34.894531 18.285156 34.894531 C 17.761719 34.894531 17.242188 34.867188 16.722656 34.816406 C 16.199219 34.765625 15.683594 34.6875 15.171875 34.585938 C 14.660156 34.484375 14.152344 34.359375 13.652344 34.207031 C 13.152344 34.054688 12.660156 33.878906 12.179688 33.679688 C 11.695312 33.480469 11.226562 33.257812 10.765625 33.007812 C 10.304688 32.761719 9.855469 32.496094 9.421875 32.203125 C 8.988281 31.914062 8.566406 31.605469 8.164062 31.273438 C 7.761719 30.941406 7.375 30.589844 7.003906 30.222656 C 6.632812 29.851562 6.285156 29.464844 5.953125 29.0625 C 5.621094 28.65625 5.308594 28.238281 5.019531 27.804688 C 4.730469 27.367188 4.460938 26.921875 4.214844 26.460938 C 3.96875 26 3.746094 25.527344 3.546875 25.046875 C 3.34375 24.5625 3.167969 24.070312 3.019531 23.570312 C 2.867188 23.070312 2.738281 22.566406 2.636719 22.050781 C 2.535156 21.539062 2.460938 21.023438 2.40625 20.503906 C 2.355469 19.984375 2.332031 19.460938 2.332031 18.941406 C 2.332031 18.417969 2.355469 17.894531 2.40625 17.375 C 2.460938 16.855469 2.535156 16.339844 2.636719 15.828125 C 2.738281 15.316406 2.867188 14.808594 3.019531 14.308594 C 3.167969 13.808594 3.34375 13.316406 3.546875 12.835938 C 3.746094 12.351562 3.96875 11.878906 4.214844 11.417969 C 4.460938 10.957031 4.730469 10.511719 5.019531 10.078125 C 5.308594 9.640625 5.621094 9.222656 5.953125 8.820312 C 6.285156 8.414062 6.632812 8.027344 7.003906 7.660156 C 7.375 7.289062 7.761719 6.9375 8.164062 6.609375 C 8.566406 6.277344 8.988281 5.964844 9.421875 5.675781 C 9.855469 5.386719 10.304688 5.117188 10.765625 4.871094 C 11.226562 4.625 11.695312 4.402344 12.179688 4.199219 C 12.660156 4 13.152344 3.824219 13.652344 3.671875 C 14.152344 3.523438 14.660156 3.394531 15.171875 3.292969 C 15.683594 3.191406 16.199219 3.113281 16.722656 3.0625 C 17.242188 3.011719 17.761719 2.988281 18.285156 2.988281 C 18.808594 2.988281 19.328125 3.011719 19.847656 3.0625 C 20.367188 3.113281 20.882812 3.191406 21.398438 3.292969 C 21.910156 3.394531 22.414062 3.523438 22.914062 3.671875 C 23.414062 3.824219 23.90625 4 24.390625 4.199219 C 24.871094 4.402344 25.34375 4.625 25.804688 4.871094 C 26.265625 5.117188 26.714844 5.386719 27.148438 5.675781 C 27.582031 5.964844 28 6.277344 28.40625 6.609375 C 28.808594 6.9375 29.195312 7.289062 29.566406 7.660156 C 29.933594 8.027344 30.285156 8.414062 30.617188 8.820312 C 30.949219 9.222656 31.257812 9.640625 31.550781 10.078125 C 31.839844 10.511719 32.109375 10.957031 32.355469 11.417969 C 32.601562 11.878906 32.824219 12.351562 33.023438 12.835938 C 33.222656 13.316406 33.398438 13.808594 33.550781 14.308594 C 33.703125 14.808594 33.828125 15.316406 33.929688 15.828125 C 34.03125 16.339844 34.109375 16.855469 34.160156 17.375 C 34.210938 17.894531 34.238281 18.417969 34.238281 18.941406 Z M 34.238281 18.941406 " fill-opacity="1" fill-rule="nonzero"/></g><g fill="#000000" fill-opacity="1"><g transform="translate(9.36729, 28.033585)"><g><path d="M 14.390625 -17.34375 C 15.304688 -16.445312 16.015625 -15.390625 16.515625 -14.171875 C 17.015625 -12.960938 17.265625 -11.691406 17.265625 -10.359375 C 17.265625 -7.503906 16.128906 -5.242188 13.859375 -3.578125 C 10.972656 -1.453125 7.800781 -0.3125 4.34375 -0.15625 C 3.53125 -0.125 2.738281 -0.335938 1.96875 -0.796875 C 1.476562 -1.054688 1.171875 -1.445312 1.046875 -1.96875 C 0.878906 -2.582031 0.992188 -3.222656 1.390625 -3.890625 C 1.722656 -4.429688 1.898438 -5.003906 1.921875 -5.609375 C 1.941406 -6.710938 1.957031 -7.816406 1.96875 -8.921875 C 1.988281 -10.023438 2.007812 -11.140625 2.03125 -12.265625 C 2.039062 -13.015625 2.050781 -13.769531 2.0625 -14.53125 C 2.070312 -15.300781 2.085938 -16.0625 2.109375 -16.8125 C 2.109375 -17.34375 2.15625 -17.753906 2.25 -18.046875 C 2.34375 -18.347656 2.515625 -18.585938 2.765625 -18.765625 C 3.023438 -18.941406 3.398438 -19.109375 3.890625 -19.265625 C 4.273438 -19.378906 4.675781 -19.484375 5.09375 -19.578125 C 5.519531 -19.679688 5.9375 -19.773438 6.34375 -19.859375 C 6.476562 -19.898438 6.613281 -19.929688 6.75 -19.953125 C 6.894531 -19.984375 7.039062 -20.015625 7.1875 -20.046875 L 7.203125 -19.890625 L 7.453125 -19.890625 C 8.785156 -19.941406 10.050781 -19.75 11.25 -19.3125 C 12.445312 -18.875 13.492188 -18.21875 14.390625 -17.34375 Z M 10.546875 -7.625 C 11.160156 -8 11.640625 -8.503906 11.984375 -9.140625 C 12.328125 -9.785156 12.488281 -10.472656 12.46875 -11.203125 C 12.46875 -11.972656 12.28125 -12.679688 11.90625 -13.328125 C 11.539062 -13.984375 11.046875 -14.503906 10.421875 -14.890625 C 9.878906 -15.222656 9.300781 -15.445312 8.6875 -15.5625 C 8.082031 -15.675781 7.484375 -15.769531 6.890625 -15.84375 C 6.765625 -15.851562 6.640625 -15.867188 6.515625 -15.890625 C 6.398438 -15.910156 6.269531 -15.929688 6.125 -15.953125 L 5.78125 -16 L 6.28125 -5.390625 L 6.6875 -5.609375 C 6.914062 -5.722656 7.140625 -5.832031 7.359375 -5.9375 C 7.578125 -6.050781 7.789062 -6.160156 8 -6.265625 C 8.457031 -6.472656 8.894531 -6.6875 9.3125 -6.90625 C 9.738281 -7.125 10.148438 -7.363281 10.546875 -7.625 Z M 10.546875 -7.625 "/></g></g></g></svg>